<?xml version="1.0" encoding="utf-8"?>
<!-- Generator: Adobe Illustrator 19.2.1, SVG Export Plug-In . SVG Version: 6.00 Build 0)  -->
<svg version="1.1" id="Layer_1" xmlns="http://www.w3.org/2000/svg" xmlns:xlink="http://www.w3.org/1999/xlink" x="0px" y="0px"
	 viewBox="0 0 300 300" style="enable-background:new 0 0 300 300;" xml:space="preserve">
<style type="text/css">
	.st0{fill:#FFFFFF;}
</style>
<g>
	<polygon class="st0" points="150.9,109.5 150.5,108.5 149.1,108.5 149.5,109.5 	"/>
	<polygon class="st0" points="180.4,228.4 131.1,131 159.2,131 134.2,81 108.4,131.8 70,131.8 133.8,5.2 198.1,131.8 161.2,131.8 
		180.8,169.9 200.4,131 230,131 	"/>
	<g>
		<path class="st0" d="M46.3,289.1v-40.2h8.9c4.2,0,7.2,0.9,8.9,2.6c1.7,1.7,2.6,4.7,2.6,8.9v15.8c0,4.4-0.9,7.7-2.6,9.8
			c-1.8,2.1-4.7,3.2-8.9,3.2H46.3z M52.1,284.8h3.2c0.9,0,1.7-0.1,2.4-0.3c0.7-0.2,1.2-0.5,1.6-0.9c0.4-0.5,0.7-0.9,1-1.3
			s0.4-1.1,0.5-1.9c0.1-0.9,0.2-1.6,0.2-2.1c0-0.6,0-1.4,0-2.6c0-0.4,0-0.7,0-0.9v-12.9c0-0.7,0-1.3,0-1.7c0-0.4,0-0.9-0.1-1.5
			c0-0.6-0.1-1.1-0.2-1.4c-0.1-0.3-0.2-0.7-0.3-1.2c-0.1-0.4-0.3-0.8-0.5-1c-0.2-0.2-0.4-0.5-0.7-0.8s-0.6-0.5-1-0.6
			c-0.4-0.1-0.8-0.2-1.3-0.3c-0.5-0.1-1.1-0.1-1.7-0.1h-3.1V284.8z"/>
		<path class="st0" d="M82.1,289.5c-2,0-3.8-0.3-5.2-0.9c-1.4-0.6-2.6-1.5-3.4-2.7c-0.9-1.2-1.5-2.6-1.9-4.2
			c-0.4-1.6-0.6-3.4-0.6-5.6v-14.6c0-2.1,0.2-3.9,0.6-5.5c0.4-1.6,1-2.9,1.9-4.1c0.9-1.2,2-2,3.4-2.6c1.4-0.6,3.2-0.9,5.2-0.9
			c3.9,0,6.7,1.1,8.5,3.4c1.7,2.2,2.6,5.5,2.6,9.7v14.6c0,2.1-0.2,3.9-0.6,5.5c-0.4,1.6-1,3-1.9,4.2c-0.9,1.2-2,2.1-3.4,2.7
			C85.8,289.2,84.1,289.5,82.1,289.5z M77.9,282.9c0.8,1.2,2.2,1.8,4.2,1.8c2,0,3.4-0.6,4.2-1.8c0.8-1.2,1.2-3,1.2-5.4v-17.5
			c0-2.3-0.4-4.1-1.1-5.2c-0.8-1.2-2.2-1.7-4.2-1.7c-2,0-3.4,0.6-4.2,1.7c-0.8,1.2-1.1,2.9-1.1,5.2v17.5
			C76.8,279.9,77.2,281.7,77.9,282.9z"/>
		<path class="st0" d="M107.1,289.5c-3.3,0-5.8-0.9-7.5-2.7c-1.7-1.8-2.6-4.4-2.6-7.7v-1.4h5.7c0,0.9,0,1.7,0.1,2.3
			c0.1,0.6,0.2,1.3,0.3,1.9s0.4,1.2,0.7,1.6s0.7,0.7,1.3,1c0.5,0.3,1.2,0.4,1.9,0.4c0.7,0,1.4-0.1,1.9-0.4c0.5-0.3,1-0.6,1.3-1
			c0.3-0.4,0.5-0.9,0.7-1.6s0.3-1.3,0.3-1.9c0.1-0.6,0.1-1.4,0.1-2.3c0-2.3-0.4-4.1-1.3-5.3s-2.4-1.9-4.4-1.9v-5.7
			c2.1,0,3.6-0.4,4.4-1.3c0.9-0.9,1.3-2.3,1.3-4.5c0-1.9-0.3-3.3-0.9-4.3c-0.6-1-1.7-1.4-3.4-1.4c-0.7,0-1.4,0.1-1.9,0.4
			c-0.5,0.3-1,0.6-1.3,1s-0.5,0.9-0.7,1.6s-0.3,1.3-0.3,1.9c-0.1,0.6-0.1,1.4-0.1,2.3h-5.7v-1.4c0-3.3,0.9-5.9,2.6-7.7
			c1.7-1.8,4.2-2.8,7.5-2.8c3.3,0,5.8,0.9,7.5,2.7c1.7,1.8,2.6,4.4,2.6,7.7c0,2.3-0.5,4.1-1.5,5.6c-1,1.5-2.4,2.5-4.2,3
			c1.9,0.6,3.3,1.8,4.3,3.5c1,1.7,1.5,3.9,1.5,6.5c0,3.8-0.8,6.7-2.4,8.8S110.6,289.5,107.1,289.5z"/>
		<path class="st0" d="M141.1,289.5c-3.6,0-6.4-1.1-8.3-3.2c-1.9-2.1-3-5-3.2-8.7l5.7-1.4c0.3,5.7,2.2,8.6,5.7,8.6
			c2.9,0,4.3-1.4,4.3-4.3c0-0.9-0.1-1.6-0.3-2.4c-0.2-0.7-0.6-1.4-1.1-2s-0.9-1.1-1.3-1.5c-0.4-0.4-0.9-0.8-1.6-1.4l-7.2-5.7
			c-1.3-1-2.4-2.3-3.2-3.9c-0.8-1.6-1.2-3.4-1.2-5.4c0-3,0.9-5.3,2.8-7.1c1.8-1.7,4.3-2.6,7.3-2.6c3.3,0,5.9,0.8,7.8,2.4
			c1.9,1.6,3.1,3.8,3.6,6.8c0,0.3,0.1,0.7,0.2,1.3l-5.7,1.4c0-0.3-0.1-0.6-0.1-1.1c-0.3-1.8-0.8-3.3-1.7-4.4s-2.2-1.6-3.9-1.6
			c-1.4,0-2.4,0.4-3.2,1.2s-1.1,1.8-1.1,3.2c0,2.3,1,4.2,2.9,5.7l7.2,5.7c3.8,3.1,5.7,6.8,5.7,11.1c0,2.9-0.9,5.2-2.7,6.9
			C146.6,288.6,144.1,289.5,141.1,289.5z"/>
		<path class="st0" d="M176.3,294.8c-1.6,0-3.2-0.6-4.9-1.7c-1.6-1.1-2.8-2.4-3.5-3.8c-0.6,0.1-1.4,0.2-2.2,0.2
			c-2,0-3.8-0.3-5.2-0.9c-1.4-0.6-2.6-1.5-3.4-2.7c-0.9-1.2-1.5-2.6-1.9-4.2c-0.4-1.6-0.6-3.4-0.6-5.6v-14.6c0-2.1,0.2-3.9,0.6-5.5
			c0.4-1.6,1-2.9,1.9-4.1c0.9-1.2,2-2,3.4-2.6c1.4-0.6,3.2-0.9,5.2-0.9c3.9,0,6.7,1.1,8.5,3.4c1.7,2.2,2.6,5.5,2.6,9.7v14.6
			c0,5.9-1.6,9.9-4.8,11.8c0.4,0.6,1.1,1.1,2,1.5c0.9,0.4,1.7,0.6,2.4,0.6V294.8z M161.5,282.9c0.8,1.2,2.2,1.8,4.2,1.8
			c2,0,3.4-0.6,4.2-1.8s1.2-3,1.2-5.4v-17.5c0-2.3-0.4-4.1-1.1-5.2c-0.8-1.2-2.2-1.7-4.2-1.7c-2,0-3.4,0.6-4.2,1.7
			c-0.8,1.2-1.1,2.9-1.1,5.2v17.5C160.3,279.9,160.7,281.7,161.5,282.9z"/>
		<path class="st0" d="M197.6,288.8c-1.3,0.5-2.9,0.7-4.6,0.7c-1.7,0-3.3-0.2-4.6-0.7s-2.4-1.1-3.3-1.9c-0.9-0.8-1.6-1.9-2.1-3.1
			s-0.9-2.6-1.1-4.1c-0.2-1.5-0.3-3.1-0.3-4.9v-25.8h5.7v25.8c0,1.2,0,2.3,0.1,3.1s0.2,1.7,0.4,2.7s0.5,1.7,0.9,2.3
			c0.4,0.6,1,1,1.7,1.4c0.7,0.4,1.6,0.6,2.6,0.6s1.9-0.2,2.6-0.6c0.7-0.4,1.3-0.8,1.7-1.4s0.7-1.3,0.9-2.3s0.4-1.8,0.4-2.7
			s0.1-1.9,0.1-3.1v-25.8h5.7v25.8c0,1.8-0.1,3.5-0.3,4.9c-0.2,1.5-0.6,2.8-1.1,4.1s-1.2,2.3-2.1,3.1
			C200,287.7,198.9,288.3,197.6,288.8z"/>
		<path class="st0" d="M207.1,289.1l8.6-40.2h5.7l8.6,40.2h-5.7l-2.2-10.1H215l-2.2,10.1H207.1z M215.7,274.7h5.7l-2.9-17.2
			L215.7,274.7z"/>
		<path class="st0" d="M233.3,289.1v-40.2h8.9c4.2,0,7.2,0.9,8.9,2.6s2.6,4.7,2.6,8.9v15.8c0,4.4-0.9,7.7-2.6,9.8
			c-1.8,2.1-4.7,3.2-8.9,3.2H233.3z M239,284.8h3.2c0.9,0,1.7-0.1,2.4-0.3s1.2-0.5,1.6-0.9c0.4-0.5,0.7-0.9,1-1.3
			c0.2-0.4,0.4-1.1,0.5-1.9c0.1-0.9,0.2-1.6,0.2-2.1s0-1.4,0-2.6c0-0.4,0-0.7,0-0.9v-12.9c0-0.7,0-1.3,0-1.7c0-0.4,0-0.9-0.1-1.5
			c0-0.6-0.1-1.1-0.2-1.4c-0.1-0.3-0.2-0.7-0.3-1.2c-0.1-0.4-0.3-0.8-0.5-1c-0.2-0.2-0.4-0.5-0.7-0.8s-0.6-0.5-1-0.6
			c-0.4-0.1-0.8-0.2-1.3-0.3s-1.1-0.1-1.7-0.1H239V284.8z"/>
	</g>
</g>
</svg>
