<?xml version="1.0" encoding="iso-8859-1"?>
<!-- Generator: Adobe Illustrator 19.0.0, SVG Export Plug-In . SVG Version: 6.00 Build 0)  -->
<svg xmlns="http://www.w3.org/2000/svg" xmlns:xlink="http://www.w3.org/1999/xlink" version="1.1" id="Layer_1" x="0px" y="0px" viewBox="0 0 511.99 511.99" style="enable-background:new 0 0 511.99 511.99;" xml:space="preserve" width="512px" height="512px">
<g>
	<g>
		<g>
			<path d="M191.734,303.718l-14.123-123.904c-3.371-29.547-26.752-51.819-54.379-51.819c-4.245,0-8.064,2.517-9.771,6.4     L95.52,175.419l-16.917-40.853c-1.643-3.989-5.547-6.592-9.856-6.592c-27.627,0-51.029,22.272-54.379,51.819L0.246,303.696     c-1.195,10.368,2.005,20.651,8.768,28.203c5.803,6.528,13.525,10.304,21.909,10.773l11.776,159.424     c0.405,5.568,5.056,9.877,10.645,9.877h85.333c5.589,0,10.219-4.309,10.645-9.877l11.776-159.424     c8.384-0.469,16.085-4.267,21.909-10.773C189.728,324.368,192.928,314.086,191.734,303.718z" fill="#FFFFFF"/>
			<path d="M225.312,436.347c-5.419-2.347-11.669,0.064-14.08,5.44c-6.016,13.632-12.693,23.445-20.992,30.869     c-4.395,3.947-4.757,10.667-0.832,15.061c2.112,2.347,5.013,3.563,7.957,3.563c2.539,0,5.077-0.896,7.104-2.709     c10.496-9.387,19.093-21.867,26.283-38.144C233.142,445.03,230.71,438.736,225.312,436.347z" fill="#FFFFFF"/>
			<path d="M95.99,106.683c29.461,0,53.333-23.872,53.333-53.333c0-29.461-23.872-53.333-53.333-53.333     c-29.461,0-53.333,23.872-53.333,53.333C42.656,82.811,66.528,106.683,95.99,106.683z" fill="#FFFFFF"/>
			<path d="M415.99,0.016c-52.928,0-96,43.072-96,96c0,48.619,77.931,182.336,86.805,197.419c1.92,3.243,5.397,5.248,9.195,5.248     c3.797,0,7.275-2.005,9.195-5.248c8.896-15.083,86.805-148.8,86.805-197.419C511.99,43.088,468.918,0.016,415.99,0.016z      M415.99,149.35c-29.397,0-53.333-23.936-53.333-53.333c0-29.397,23.936-53.333,53.333-53.333s53.333,23.936,53.333,53.333     C469.323,125.414,445.387,149.35,415.99,149.35z" fill="#FFFFFF"/>
			<path d="M362.123,277.35c-7.979,0.405-15.424,1.173-22.379,2.261c-5.824,0.917-9.792,6.379-8.896,12.203     c0.832,5.269,5.355,9.003,10.539,9.003c0.555,0,1.109-0.043,1.664-0.128c6.251-0.981,12.949-1.685,20.139-2.027     c5.867-0.299,10.411-5.312,10.133-11.179C373.046,281.616,368.096,277.03,362.123,277.35z" fill="#FFFFFF"/>
			<path d="M252.128,356.283c-5.44-2.219-11.669,0.469-13.845,5.952c-5.056,12.672-9.024,25.813-12.864,38.507l-0.725,2.432     c-1.707,5.632,1.472,11.584,7.125,13.291c1.024,0.32,2.069,0.448,3.093,0.448c4.587,0,8.811-2.965,10.219-7.573l0.725-2.411     c3.712-12.288,7.552-24.96,12.267-36.8C260.278,364.667,257.611,358.459,252.128,356.283z" fill="#FFFFFF"/>
			<path d="M295.904,293.392c-14.101,7.296-25.771,16.917-35.691,29.419c-3.669,4.608-2.901,11.328,1.728,14.997     c1.963,1.557,4.309,2.304,6.635,2.304c3.136,0,6.251-1.387,8.363-4.032c8-10.091,17.429-17.856,28.8-23.744     c5.227-2.709,7.275-9.152,4.565-14.379C307.552,292.731,301.131,290.662,295.904,293.392z" fill="#FFFFFF"/>
		</g>
	</g>
</g>
<g>
</g>
<g>
</g>
<g>
</g>
<g>
</g>
<g>
</g>
<g>
</g>
<g>
</g>
<g>
</g>
<g>
</g>
<g>
</g>
<g>
</g>
<g>
</g>
<g>
</g>
<g>
</g>
<g>
</g>
</svg>
